# xmcd CD database file
#
# Track frame offsets:
#	150
#	16412
#	35843
#	47469
#	62083
#	80344
#	92130
#	106267
#	123065
#	133904
#	146537
#	164241
#	195173
#	209059
#	224245
#	234150
#	249928
#	259704
#	283614
#	298765
#	314254
#	330084
#
# Disc length: 4701 seconds
#
# Revision: 1
# Processed by: cddbd v1.5.2PL0 Copyright (c) Steve Scherf et al.
# Submitted via: CDex 1.51
#
DISCID=45125b16
DTITLE=Amy Winehouse - Back To Black
DYEAR=2007
DGENRE=Blues
TTITLE0=Rehab
TTITLE1=You Know I'm No Good
TTITLE2=Me and Mr  Jones
TTITLE3=Just Friends
TTITLE4=Back To Black
TTITLE5=Love Is A Losing Game
TTITLE6=Tears Dry On Their Own
TTITLE7=Wake Up Alone
TTITLE8=Some Unholy War
TTITLE9=He Can Only Hold Her
TTITLE10=Stronger Than Me
TTITLE11=You Sent Me Flying
TTITLE12=Know You Now
TTITLE13=Me Pumps
TTITLE14=I Heard Love Is Blind
TTITLE15=Moodys Mood For Love
TTITLE16=No Greater Love
TTITLE17=In My Bed
TTITLE18=Take The Box
TTITLE19=October Song
TTITLE20=What Is It About Men
TTITLE21=Help Yourself
EXTD=YEAR: 2007
EXTT0=
EXTT1=
EXTT2=
EXTT3=
EXTT4=
EXTT5=
EXTT6=
EXTT7=
EXTT8=
EXTT9=
EXTT10=
EXTT11=
EXTT12=
EXTT13=
EXTT14=
EXTT15=
EXTT16=
EXTT17=
EXTT18=
EXTT19=
EXTT20=
EXTT21=
PLAYORDER=
